<svg version="1.1" id="Layer_1" xmlns:x="ns_extend;" xmlns:i="ns_ai;" xmlns:graph="ns_graphs;" xmlns="http://www.w3.org/2000/svg" xmlns:xlink="http://www.w3.org/1999/xlink" x="0px" y="0px" viewBox="0 0 96 54" style="enable-background:new 0 0 96 54;" xml:space="preserve">
 <style type="text/css">
  .st0{fill:#1B3139;}
	.st1{fill:#FF3621;}
 </style>
 <metadata>
  <sfw xmlns="ns_sfw;">
   <slices>
   </slices>
   <sliceSourceBounds bottomLeftOrigin="true" height="53.7" width="95.8" x="0.2" y="0.3">
   </sliceSourceBounds>
  </sfw>
 </metadata>
 <g>
  <path class="st0" d="M26.5,49.9v-4.9c0-0.1-0.1-0.2-0.2-0.2h-1.6V43h1.6c0.1,0,0.2-0.1,0.2-0.2v-3h2.3v3c0,0.1,0.1,0.2,0.2,0.2h2.2
		v1.9H29c-0.1,0-0.2,0.1-0.2,0.2v4.3c0,2,0.7,2.2,1.6,2.2c0.3,0,0.8,0,1.1-0.1v2c-0.4,0-1,0.1-1.7,0.1C29,53.6,26.5,53.6,26.5,49.9z
		 M88.2,51.1l1.8-1c0.4,1,1.2,1.6,2.1,1.6c0.7,0,1.5-0.3,1.5-1.2c0-0.6-0.4-0.9-1.3-1.2l-1.3-0.4c-1.8-0.5-2.6-1.6-2.6-3
		c0-1.8,1.5-3.2,3.6-3.2c1.6,0,3,0.9,3.7,2.3L94,46c-0.4-0.9-1.1-1.4-1.9-1.4c-0.8,0-1.3,0.4-1.3,1.1c0,0.5,0.4,1,1.3,1.2l1.3,0.4
		c1.8,0.6,2.7,1.6,2.7,3c0,2.2-1.9,3.3-3.8,3.3C90.3,53.7,88.8,52.7,88.2,51.1z M81.2,49.2c0,0-0.1,0.1-0.1,0.1v4.1h-2.3v-15h2.3
		v8.2c0,0.1,0,0.2,0.1,0.2c0.1,0,0.2,0,0.2,0l3.7-3.8h2.8l-4.4,4.4c-0.1,0.1-0.1,0.2,0,0.3l4.7,5.8h-2.8L82,48.8
		c0,0-0.1-0.1-0.1-0.1s-0.1,0-0.1,0L81.2,49.2z M77.7,44.4l-1.5,1.4c-0.8-0.6-1.7-0.9-2.6-0.9c-1.9,0-3.4,1.4-3.4,3.4
		c0,1.9,1.4,3.4,3.4,3.4c0.8,0,1.7-0.3,2.6-0.9l1.3,1.4c-1.9,1.4-2.9,1.6-4.2,1.6c-1.6,0-2.9-0.5-4-1.6c-1-1-1.5-2.4-1.5-3.9
		c0-3.2,2.3-5.5,5.5-5.5C74.5,42.7,76,42.9,77.7,44.4z M66.9,39.8c0,0.8-0.6,1.4-1.4,1.4c-0.8,0-1.4-0.6-1.4-1.4s0.6-1.4,1.4-1.4
		C66.2,38.4,66.9,39.1,66.9,39.8z M66.7,53.4h-2.3V43h2.3V53.4z M59.3,48.8v4.6H57V43h2.3v1.3c0,0.1,0,0.2,0.1,0.2
		c0.1,0,0.2,0,0.2-0.1c0.6-1,1.7-1.6,2.9-1.6c0.2,0,0.3,0,0.4,0v2.4c-0.1,0-0.3,0-0.5,0C60.4,45.1,59.3,46.6,59.3,48.8z M46.9,48.2
		c0-1.9,1.4-3.4,3.3-3.4c1.8,0,3.3,1.5,3.3,3.4c0,1.9-1.4,3.4-3.3,3.4C48.3,51.6,46.9,50.1,46.9,48.2z M47.1,52.2
		C47.2,52.2,47.2,52.2,47.1,52.2c0.1,0,0.2,0,0.3,0.1c0.8,0.9,2,1.4,3.3,1.4c2.9,0,5-2.4,5-5.5c0-1.5-0.5-2.9-1.5-3.9
		c-0.9-1-2.2-1.6-3.6-1.6c-1.3,0-2.5,0.5-3.3,1.5c0,0-0.1,0.1-0.2,0c-0.1,0-0.1-0.1-0.1-0.2v-5.7h-2.3v15H47v-1.1
		C47,52.3,47,52.2,47.1,52.2z M37.5,51.6c-1.8,0-3.3-1.5-3.3-3.4c0-1.9,1.4-3.4,3.3-3.4c1.8,0,3.3,1.5,3.3,3.4
		C40.8,50.1,39.3,51.6,37.5,51.6z M43,53.4V43h-2.3V44c0,0.1,0,0.2-0.1,0.2c-0.1,0-0.2,0-0.2,0c-0.8-0.9-1.9-1.4-3.3-1.4
		c-2.9,0-5,2.4-5,5.5c0,3.1,2.2,5.5,5,5.5c1.3,0,2.5-0.5,3.3-1.5c0-0.1,0.1-0.1,0.2,0c0.1,0,0.1,0.1,0.1,0.2v1.1L43,53.4L43,53.4z
		 M18.1,51.6c-1.8,0-3.3-1.5-3.3-3.4c0-1.9,1.4-3.4,3.3-3.4c1.8,0,3.3,1.5,3.3,3.4C21.4,50.1,19.9,51.6,18.1,51.6z M23.5,53.4V43
		h-2.3V44c0,0.1,0,0.2-0.1,0.2c-0.1,0-0.2,0-0.2,0c-0.8-0.9-1.9-1.4-3.3-1.4c-2.9,0-5,2.4-5,5.5c0,3.1,2.2,5.5,5,5.5
		c1.3,0,2.5-0.5,3.3-1.5c0-0.1,0.1-0.1,0.2,0c0.1,0,0.1,0.1,0.1,0.2v1.1L23.5,53.4L23.5,53.4z M5.8,51.6c-1.8,0-3.3-1.5-3.3-3.4
		c0-1.9,1.4-3.4,3.3-3.4c1.8,0,3.3,1.5,3.3,3.4C9.1,50.1,7.6,51.6,5.8,51.6z M11.2,53.4v-15H8.9v5.6c0,0.1,0,0.2-0.1,0.2
		c-0.1,0-0.2,0-0.2,0c-0.8-0.9-2-1.4-3.3-1.4c-2.9,0-5,2.4-5,5.5c0,1.5,0.5,2.9,1.5,3.9c0.9,1,2.2,1.6,3.6,1.6
		c1.3,0,2.5-0.5,3.3-1.5c0,0,0.1-0.1,0.2,0c0.1,0,0.1,0.1,0.1,0.2v1.1L11.2,53.4L11.2,53.4z">
  </path>
  <path class="st1" d="M59.7,12.5l-12.5,7.1l-13.3-7.6l-0.6,0.3v5.5l14,7.9l12.5-7.1v2.9l-12.5,7.1l-13.3-7.6l-0.6,0.3v0.9l14,7.9
		l14-7.9V17l-0.6-0.3l-13.4,7.6l-12.5-7.1v-2.9l12.5,7.1l14-7.9V7.9l-0.7-0.4l-13.3,7.5L35.4,8.3l11.8-6.7L57,7.1l0.9-0.5V6L47.2,0
		l-14,7.9v0.8l14,7.9l12.5-7.1V12.5z">
  </path>
 </g>
</svg>